<?xml version="1.0" encoding="utf-8"?>
<!-- Generator: Adobe Illustrator 21.0.0, SVG Export Plug-In . SVG Version: 6.00 Build 0)  -->
<svg version="1.1" xmlns="http://www.w3.org/2000/svg" xmlns:xlink="http://www.w3.org/1999/xlink" x="0px" y="0px"
	 viewBox="0 0 540 914" style="enable-background:new 0 0 540 914;" xml:space="preserve">
<style type="text/css">
	.st0{display:none;}
	.st1{fill:#442E13;}
	.st2{fill:#D49577;}
	.st3{fill:none;stroke:#A89D92;stroke-width:4;stroke-linecap:round;stroke-miterlimit:10;}
	.st4{fill:#B98138;}
	.st5{fill:#D39853;stroke:#B98138;stroke-width:3;stroke-miterlimit:10;}
	.st6{fill:none;stroke:#935E32;stroke-width:6;stroke-linecap:round;stroke-miterlimit:10;}
	.st7{fill:none;stroke:#935E32;stroke-width:10;stroke-linecap:round;stroke-miterlimit:10;}
	.st8{fill:none;stroke:#935E32;stroke-width:5;stroke-linecap:round;stroke-miterlimit:10;}
	.st9{fill:none;stroke:#935E32;stroke-width:5;stroke-linecap:round;stroke-miterlimit:10;stroke-dasharray:12.9322,12.9322;}
	.st10{fill:none;stroke:#935E32;stroke-width:5;stroke-linecap:round;stroke-miterlimit:10;stroke-dasharray:13.139,13.139;}
	.st11{fill:none;}
	.st12{fill:#68C7DD;}
	.st13{fill:#57AAB2;}
	.st14{fill:#E5B9A8;stroke:#E5B9A8;stroke-width:3;stroke-miterlimit:10;}
	.st15{fill:#EFCBB3;stroke:#E5B9A8;stroke-width:5;stroke-miterlimit:10;}
	.st16{fill:#E59689;}
	.st17{fill:#EAA286;}
	.st18{fill:#58A9BF;}
	.st19{fill:#F2DAAA;}
	.st20{fill:#FFB6B6;}
	.st21{fill:#E2C7A1;}
	.st22{fill:#EFD592;}
	.st23{fill:none;stroke:#F2DAAA;stroke-width:7;stroke-linecap:round;stroke-miterlimit:10;}
	.st24{fill:none;stroke:#E5B9A8;stroke-width:4;stroke-linecap:round;stroke-miterlimit:10;}
	.st25{fill:#A59B8E;}
</style>
<g id="Слой_1" class="st0">
	
		<image style="display:inline;overflow:visible;" width="2048" height="2048" xlink:href="../Library/Mobile Documents/com~apple~CloudDocs/Новая_иллюстрация.jpg"  transform="matrix(0.5455 0 0 0.5455 -295.0033 -26.5455)">
	</image>
</g>
<g id="голова">
	<g>
		<path class="st1" d="M463.8,898.3c-0.3-4-4.9-8-4.9-8c-5.5-4.8-21-18.7-33-24.4c-1.8-0.9-4.7-2.1-8.4-1.9c-1.2,0-2,0.3-2.6,0.3
			c-17.6-0.3-25.3,2.1-26.3,2.4c-0.1,0-0.1,0-0.2,0.1l-39,10.2c-0.3,0.1-0.6,0.2-0.9,0.4c-7.6,2.8-15.9,6.8-24,12.9
			c-1.2,0.9-2.4,1.8-3.5,2.8c-0.3,0.5-0.5,1.2-0.8,2c-0.2,0.7-0.3,1.3-0.4,1.9v4.8c0,1.7,1.4,3.1,3.1,3.1c45.8,0,91.7-0.1,137.5-0.1
			c0.5-0.1,1.4-0.4,2.1-1.3c0.3-0.3,0.4-0.7,0.6-1.4C463.8,900.4,463.8,898.9,463.8,898.3z"/>
		<path class="st1" d="M226.9,892.9c-1.1-0.9-2.3-1.8-3.5-2.8c-8.1-6.1-16.4-10.1-24-12.9c-0.3-0.2-0.6-0.3-0.9-0.4l-39-10.2
			c-0.1,0-0.1,0-0.2-0.1c-0.9-0.3-8.6-2.7-26.3-2.4c-0.5,0-1.4-0.3-2.6-0.3c-3.7-0.1-6.6,1.1-8.4,1.9c-12,5.7-27.5,19.5-33,24.4
			c0,0-4.6,4-4.9,8c-0.1,0.7,0,2.1,0.4,3.6c0.2,0.7,0.4,1,0.6,1.4c0.7,0.9,1.6,1.2,2.1,1.3c45.8,0,91.7,0.1,137.5,0.1
			c1.7,0,3.1-1.4,3.1-3.1v-4.8c-0.1-0.5-0.2-1.2-0.4-1.9C227.4,894.1,227.1,893.4,226.9,892.9z"/>
		<path class="st2" d="M274,168.8"/>
	</g>
	<g>
		<path class="st3" d="M99.4,879.2c0.7-0.5,3.6-2.6,7.3-2c4,0.6,7.4,4,8.4,8.5"/>
		<path class="st3" d="M108.4,872.2c0.7-0.5,3.6-2.6,7.3-2c4,0.6,7.4,4,8.4,8.5"/>
		<path class="st3" d="M118.4,866.2c0.7-0.5,3.6-2.6,7.3-2c4,0.6,7.4,4,8.4,8.5"/>
		<path class="st3" d="M448.4,880.2c-0.7-0.5-3.6-2.6-7.3-2c-4,0.6-7.4,4-8.4,8.5"/>
		<path class="st3" d="M439.4,873.2c-0.7-0.5-3.6-2.6-7.3-2c-4,0.6-7.4,4-8.4,8.5"/>
		<path class="st3" d="M429.4,867.2c-0.7-0.5-3.6-2.6-7.3-2c-4,0.6-7.4,4-8.4,8.5"/>
	</g>
	<g id="Слой_6">
		<path class="st4" d="M432,823c-0.6-2.9-3.1-5-6-5c-1.3,0-2.3-0.3-3.4-1c-1.7-1.1-2.4-3.1-2.7-4.8c0-0.1,0-0.2,0-0.3
			c-2.4-69.6-4.7-139.2-7.1-208.7c-0.1-4.2-3.6-7.6-7.8-7.7l-126.6-2c-0.3,0-0.6-0.1-0.8-0.2c-0.2-0.1-0.3-0.2-0.5-0.2
			c-1.1-0.4-2.1-0.5-3-0.5c-0.9,0-1.9,0.1-3,0.5c-0.2,0.1-0.3,0.1-0.5,0.2c-0.3,0.1-0.5,0.2-0.8,0.2l-126.6,2
			c-4.2,0.1-7.7,3.4-7.8,7.7c-2.4,69.6-4.7,139.2-7.1,208.7c0,0.1,0,0.2,0,0.3c-0.3,1.6-1,3.7-2.7,4.8c-1.2,0.8-2.1,1-3.4,1
			c-2.9,0-5.5,2.1-6,5c-1.9,12.1-1.9,24.8-0.1,38.1c0.6,2.8,3.1,4.8,6,4.8c0.1,0,0.2,0,0.3,0c21.2-4.3,99.5,20.6,104.1,28
			c0.1,0.2,0.4,0.4,0.6,0.5c0.9,0.4,1.8,0.7,2.8,0.7h3c3.7,0,6.9-2.5,7.7-6.1l7-29.6c0.4-1.5,0.3-3.1-0.3-4.5l-2.5-6.9
			c-0.4-1.2-0.6-2.6-0.4-3.8l22.6-156.1c0.4-3,2.5-5.5,5.4-6.4l0,0c0.2-0.1,0.3-0.1,0.5-0.1c0.4,0,0.8,0,1.2-0.1c0.1,0,0.1,0,0.2,0
			c0.4,0,0.8,0,1.2,0.1c0.2,0,0.3,0,0.5,0.1l0,0c2.9,0.9,5,3.4,5.4,6.4L303.7,844c0.2,1.3,0.1,2.6-0.4,3.8l-2.5,6.9
			c-0.5,1.5-0.6,3-0.3,4.5l7,29.6c0.8,3.6,4,6.1,7.7,6.1h3c1,0,1.9-0.2,2.8-0.7c0.2-0.1,0.4-0.3,0.6-0.5
			c4.5-7.3,81.3-31.7,103.5-28.1c0.7,0.1,1.4,0.2,2.1,0.1c2.4-0.4,4.4-2.3,4.9-4.8C433.8,847.8,433.9,835.1,432,823z"/>
	</g>
	<g id="Слой_3">
		<path class="st5" d="M116,821.2c1.3-9.9,49,5.6,55.1,7c16,3.7,32.5,8,48.2,12.5c11.5,4,31.2,3.5,28.1,18.6
			c-1.6,7.9-4.2,23.4-7.5,30.7c-5.2,11.6-16.4,1.5-24.2-1.9c-19.2-8.2-39.7-14.5-60-19.2c-8-1.8-15.9-2.9-24.1-3.4
			c-3.2-0.2-8,0.7-11-0.1C107.5,862.1,114.6,831,116,821.2z"/>
		<path class="st5" d="M432.6,821.9c-1.3-10.2-51.1,3.8-57.1,5.6c-17,5.2-32.5,7.8-48,13.8c-11.9,4.6-29.5,6.6-26.4,22.2
			c1.6,8.2,2.9,19.3,6.2,26.8c5.2,12,15.3,2.7,23.3-0.8c19.3-8.5,40.1-15,60.5-19.8c8-1.9,16-3,24.3-3.5c3.2-0.2,9.6,0.6,12.6-0.2
			C441.1,862.5,434,832,432.6,821.9z"/>
		<path class="st6" d="M258,586c0,0-1,52,0,57s16,25,19,14s0.3-75.6,0.3-75.6"/>
		<path class="st7" d="M154,633c1.7,0.5,15.4,3.8,27-5c9.7-7.4,14.1-20.4,11-33"/>
		<path class="st7" d="M389,633c-1.7,0.5-15.4,3.8-27-5c-9.7-7.4-14.1-20.4-11-33"/>
		<g>
			<g>
				<path class="st8" d="M275.5,674.5c-1.8-1.2-4-1.2-6.3-0.7"/>
				<polyline class="st9" points="258.4,680.2 253.8,701.6 235.8,827.2 				"/>
				<line class="st8" x1="234.9" y1="833.6" x2="234" y2="840"/>
			</g>
		</g>
		<g>
			<g>
				<line class="st8" x1="404" y1="604" x2="404.2" y2="610.5"/>
				<line class="st10" x1="404.6" y1="623.6" x2="409.6" y2="800.9"/>
				<line class="st8" x1="409.8" y1="807.5" x2="410" y2="814"/>
			</g>
		</g>
	</g>
	<g id="Слой_4">
		<path class="st11" d="M437,598.7H151.3c-3.5,0-6.3-2.9-6.3-6.3l0,0c0-3.5,2.8-6.3,6.3-6.3H437c3.5,0,6.3,2.8,6.3,6.3l0,0
			C443.3,595.8,440.5,598.7,437,598.7z"/>
		<path class="st12" d="M511.6,354.3c-2.8-2.6-20.4-23.3-46.6-37.3c-32-17-32.5-16.5-51-24c-17.4-7.1-56.4-16.2-68.7-17
			c-5.7-0.4-16-3.2-19.7,2.4c-2.1,3.2-0.9,10.7-1.4,14.3c-1,6.8-100.2,2-101.2-6.1c-0.8-6,0.1-8.3-6.1-11
			c-8.9-3.9-67.8,7.2-100.2,22.4C89,311,44.8,344.5,34,354.7c-2.3,2.2,2.4,6.3,4.7,8.5c1.6,1.5,3.4,3.3,4.6,4.9
			c16.3,21.3,37.1,43.6,56.4,62.2c2.8,2.7,11.8,9.7,15.6,12.6c1,0.8,2.4,0.8,3.4,0c3.7-2.9,12.5-9.7,17-13.3c8-6.2,7.2,3.4,7.2,9.1
			c-0.1,17-2.6,34.4-3.9,51.4c-1.7,22.9-3.5,45.8-5.2,68.8c-0.6,8-5.2,25.1-3.3,34.2v4c0,2,1.6,3.7,3.7,3.7h279.2
			c2,0,3.7-1.7,3.7-3.7v-4.7c1.2-7.9-1.6-19.6-2-24.9c-1.7-21.8-3.3-43.7-5-65.5c-1.6-20.6-4.3-41.4-4.7-62
			c-0.1-6,1.7-18.3,7.1-10.4c3.8,5.6,8,10.9,11.2,14.6c2.4,2.9,6.8,3.1,9.5,0.5c5.6-5.3,61.5-62.3,78.9-80.1
			C514.7,361.7,514.6,357,511.6,354.3z"/>
		<path class="st13" d="M342.6,447.8c0,0-30.3-17.3-30.3-24.7v-41.8c0-3,2.4-5.4,5.4-5.4H365c3.1,0,5.6,2.5,5.6,5.6v41.6
			C370.6,430.5,342.6,447.8,342.6,447.8z"/>
		<path class="st14" d="M82.7,566.7c-1.4-0.4-11.6-3.1-14.7-12c-0.4-1.1-2.5-7.1,0.7-10.7c3.4-3.9,11.4-3,15.3,0.7
			C88.8,549.1,89,558.7,82.7,566.7z"/>
		<path class="st14" d="M467.1,572.7c1.4-0.4,11.6-3.1,14.7-12c0.4-1.1,2.5-7.1-0.7-10.7c-3.4-3.9-11.4-3-15.3,0.7
			C461.1,555.1,460.8,564.7,467.1,572.7z"/>
	</g>
	<g>
		<path class="st15" d="M515.7,380.3c-3.8-6.9-7.2-12.3-7.2-12.3l-72.2,73.7c0,0,10.7,23.9,1.3,37.1c-18,25.4-41.2,34.4-33.4,71.2
			c5.1,24.3,19.8,45,46.9,40.3c11.2-1.9,40.3-10.1,36.2-26.9c-3.5-14.6-7.6-2.1-14.1,0.9c-7.8,3.6-9.7-0.2-7.5-7.5
			c2.3-7.7,20.3-16.8,26.2-22c20-17.5,35-39.2,38.8-66C535,438.2,530.6,407.7,515.7,380.3z"/>
		<path class="st15" d="M103.8,463.2c-1-5-1.3-10.4-0.7-15.4c0.5-3.6,4.6-11,4.6-11l-66.7-72c0,0-20,31.3-24.9,56.5
			c-4.2,21.4-5.1,41.4,0.3,62.5c6.2,24.3,26.7,42.7,46.9,55.8c5.4,3.5,17.9,8.6,19.9,15.2c2.4,8.1-4.4,10.1-9.6,5.4
			c-4.5-4-10.5-14.2-13.3-1.7c-2.5,11.2,7.6,17.9,16.2,22c19.6,9.4,42.6,11.7,56.1-7.9c11.3-16.3,16.8-41.1,9.3-59.9
			C133.9,493.2,108.1,484,103.8,463.2z"/>
	</g>
	<path class="st15" d="M389.5,140.4c-2.9-1.7-6.6-1.6-10.7-1.5c-3.8,0.1-8.7,0.2-12.1,2.4c-0.3-18-2.8-30.5-11.7-41.8
		C334.9,73.9,297.8,74,269,74c-29.5,0-62.5,0.1-82.5,23.5c-10.5,12.3-14.2,27.3-15.2,44.1c-0.1-0.1-0.2-0.1-0.3-0.2
		c-3.4-2.3-8.4-2.4-12.3-2.5c-4.1-0.1-7.8-0.2-10.7,1.5c-6.2,3.6-6.2,13.7-6,30.5c0.3,23.3,4.8,27.3,6.5,28.5
		c3.7,2.8,8.7,3.4,10.2,3.5c1.3,0.1,7.9,0.7,12.3-2.5c0.8-0.6,1.5-1.3,2.1-2.2c1.3,9,3.7,17.2,8.9,25.8
		c13.6,22.7,36.6,32.5,48.4,36.7v8.7c0,2.9-2.2,5.4-5.1,5.8c-6,0.8-14.4,3.2-12,10.4c2.5,7.4,6.9,21.3,16.3,30.3
		c11.8,11.3,27.5,18.2,44.3,18.5c21.2,0.4,35.8-7.1,46.3-17.9c10.2-10.4,14.2-23.4,15.7-31.3c1.5-8.1-7-9.7-15.3-10.4
		c-3-0.3-5.4-2.8-5.4-5.9v-10.9c0.6-0.3,1.1-0.5,1.7-0.7c10.8-4.7,20.1-8.7,28.5-17c12-11.8,16.6-26.8,18.7-42.7
		c0.6,1.1,1.3,1.9,2.3,2.6c4.4,3.2,11,2.6,12.3,2.5c1.6-0.1,6.5-0.7,10.2-3.5c1.7-1.2,6.2-5.2,6.5-28.5
		C395.7,154.1,395.7,144,389.5,140.4z"/>
	<g>
		<path class="st16" d="M262.3,205.8c-1-0.8-2.6-0.8-3.7-0.4c-0.1,0-1.3,0.5-2,1.6c-1.8,2.9,1,7.6,1.3,8c2.9,4.7,8.2,5.9,9.8,6.3
			c1.3,0.3,8.6,2,14.4-2.5c0,0,3.8-3,5.2-8.5c0.3-1.3,0.3-2.3-0.2-3.1c-0.7-1.2-2.1-1.6-2.4-1.6c-0.3-0.1-1.2-0.3-2.1,0
			c-2.3,0.8-1.6,4.2-4.3,6.8c-1.2,1.2-2.6,1.6-3.3,1.8c-4.2,1.2-7.7-1-8-1.2c-0.6-0.4-2.2-1.4-3.1-3.3
			C263,207.8,263.5,206.6,262.3,205.8z"/>
		<path class="st17" d="M281,185c0.1-3.4-10.9-2.6-16-10c-2.7-3.9-0.1-4.9-2.7-20c-1-5.8-1.8-8.5,0-10.7c2.1-2.5,6.9-3,9-1
			c1.7,1.5,1.1,3.9,0.7,10.3c-0.6,9.3-0.8,14,1,16.3c3.1,4,7.4,1.1,12.3,6c0.4,0.4,4.4,4.5,4.3,10.3c0,1.2-0.1,3.3-1.3,5.3
			c-0.5,0.8-1.8,2.6-7.3,4.7c-3.5,1.3-8,2.9-14,2.2c-3.6-0.4-7-0.8-8.7-3.5c-1.6-2.6-1.3-6.7,0.7-8c1.1-0.7,2.1-0.1,7.3,1
			c6.5,1.4,8.1,1.2,9,1C277.5,188.5,280.9,186.9,281,185z"/>
		<circle class="st18" cx="223.8" cy="153.5" r="8.3"/>
		<circle class="st18" cx="310" cy="153.5" r="8.3"/>
		<ellipse class="st19" cx="223.8" cy="124.2" rx="18.5" ry="8.6"/>
		<ellipse class="st19" cx="310" cy="124.2" rx="18.5" ry="8.6"/>
		<ellipse class="st20" cx="209" cy="184.6" rx="18.3" ry="10.2"/>
		<ellipse class="st20" cx="323.7" cy="184.6" rx="18.3" ry="10.2"/>
	</g>
	<g>
		<path class="st21" d="M219.1,66.7c2.5,4.5,4.6,8.3,3.2,11.8c-0.4,1.1-1.4,2.7-8.8,6.1c-8.2,3.8-12.2,5.6-14.8,4.7
			c-5.2-1.9-6.4-9.9-8.2-21.1c-1.3-8.7-0.6-13.7,0.6-17.6c0.9-2.7,2.7-8.6,6.6-9.3C199.9,40.9,214.7,58.7,219.1,66.7z"/>
		<path class="st22" d="M333,58.5c-6.1-9.5-18.3-11.4-34.7-13.8c-15.1-2.2-18.1-0.5-34.7-3.6c-16.7-2.2-43.9-19.1-42.7-36.4
			c0-0.6,0.1-1.3,0.2-1.9c-3.5,4.2-12,15.5-14.1,28.9c-0.7,4.5-3,20.6,6,36.8c3.8,6.8,8.1,11.1,10.5,13.5c11,10.8,23.2,14.9,30,17
			c4.4,1.4,23.6,7,47,1.5c18.2-4.3,25.8-10.8,27.5-12.5c2.9-2.9,7.6-7.6,8.5-15C337.4,65.5,333.8,59.7,333,58.5z"/>
		<g>
			<g>
				<path class="st23" d="M169,135c0.6-1,5.8-3.5,10,0.8"/>
				<path class="st23" d="M170,125c0.6-1,5.8-3.5,10,0.8"/>
				<path class="st23" d="M173,116c0.6-1,5.8-3.5,10,0.8"/>
				<path class="st23" d="M176,107c0.6-1,5.8-3.5,10,0.8"/>
				<path class="st23" d="M181.5,97.9c0.8-0.8,6.5-2,9.5,3.1"/>
				<path class="st23" d="M187.5,89.9c0.8-0.8,6.5-2,9.5,3.1"/>
				<path class="st23" d="M195.5,82.9c0.8-0.8,6.5-2,9.5,3.1"/>
				<path class="st23" d="M205.5,77.9c0.8-0.8,6.5-2,9.5,3.1"/>
			</g>
			<path class="st23" d="M369.6,135.4c-0.6-1-5.8-3.5-10,0.8"/>
			<path class="st23" d="M368.6,125.4c-0.6-1-5.8-3.5-10,0.8"/>
			<path class="st23" d="M365.6,116.4c-0.6-1-5.8-3.5-10,0.8"/>
			<path class="st23" d="M362.6,107.4c-0.6-1-5.8-3.5-10,0.8"/>
			<path class="st23" d="M357.2,98.3c-0.8-0.8-6.5-2-9.5,3.1"/>
			<path class="st23" d="M351.2,90.3c-0.8-0.8-6.5-2-9.5,3.1"/>
			<path class="st23" d="M343.2,83.3c-0.8-0.8-6.5-2-9.5,3.1"/>
		</g>
	</g>
	<path class="st24" d="M166.7,168.8c0.5-10.2-2.7-17.3-6.7-18c-3.6-0.7-7.6,3.9-9.3,7.3c-5.8,11.4,5.4,25.9,6,26.7"/>
	<path class="st24" d="M368.4,168.8c-0.5-10.2,2.7-17.3,6.7-18c3.6-0.7,7.6,3.9,9.3,7.3c5.8,11.4-5.4,25.9-6,26.7"/>
	<path class="st25" d="M226.1,907l-139.5-0.1c-1.8,0-2.4-6.9-2.4-6.9h143.6C227.8,900,228.9,905.3,226.1,907z"/>
	<path class="st25" d="M461.6,906.9l-140.1,0.9c-2.5-1.7-1.4-8.2-1.4-8.2l143.7,0.4C463.7,900,463.3,906.9,461.6,906.9z"/>
</g>
</svg>
