<?xml version="1.0" encoding="utf-8"?>
<!-- Generator: Adobe Illustrator 21.0.0, SVG Export Plug-In . SVG Version: 6.00 Build 0)  -->
<svg version="1.1" id="Слой_1" xmlns="http://www.w3.org/2000/svg" xmlns:xlink="http://www.w3.org/1999/xlink" x="0px" y="0px"
	 viewBox="0 0 504 228" style="enable-background:new 0 0 504 228;" xml:space="preserve">
<style type="text/css">
	.st0{fill:#F2F2F2;}
	.st1{fill:none;}
</style>
<g>
	<path class="st0" d="M413.4,200H52.3c-9.5,0-17.3-5.4-17.3-11.9V24.9C35,18.4,42.8,13,52.3,13c0,0,270.8,0,361.1,0
		c9.5,0,17.3,5.4,17.3,11.9c0,8.9,0.1,31.8,0.2,41.6c0,4.1,2,6.5,8.1,7.3C447,74,454,75,466,72c0,0-29,15.2-32,19
		c-3.1,3.9-3,8.5-3,10.3c0.1,13-0.2,38-0.2,70.8C432.2,200,418.2,200,413.4,200z"/>
</g>
<line class="st1" x1="397" y1="88" x2="479" y2="88"/>
</svg>
