<?xml version="1.0" encoding="utf-8"?>
<!-- Generator: Adobe Illustrator 21.0.0, SVG Export Plug-In . SVG Version: 6.00 Build 0)  -->
<svg version="1.1" id="Слой_1" xmlns="http://www.w3.org/2000/svg" xmlns:xlink="http://www.w3.org/1999/xlink" x="0px" y="0px"
	 viewBox="0 0 504 228" style="enable-background:new 0 0 504 228;" xml:space="preserve">
<style type="text/css">
	.st0{fill:#F2F2F2;}
	.st1{fill:none;}
</style>
<g>
	<path class="st0" d="M410.8,224H45.5c-9.6,0-17.5-6.4-17.5-14.1V17.1C28,9.4,35.9,3,45.5,3c0,0,273.9,0,365.3,0
		c9.6,0,17.5,6.4,17.5,14.1c0,10.5,0.1,37.6,0.2,49.2c0,4.8,2,7.7,8.2,8.6c8.1,0.2,15.2,1.4,27.3-2.1c0,0-29.3,18-32.4,22.5
		c-3.1,4.6-3,10-3,12.2c0.1,15.4-0.2,44.9-0.2,83.7C429.8,224,415.6,224,410.8,224z"/>
</g>
<line class="st1" x1="397" y1="88" x2="479" y2="88"/>
</svg>
