<?xml version="1.0" encoding="utf-8"?>
<!-- Generator: Adobe Illustrator 21.0.0, SVG Export Plug-In . SVG Version: 6.00 Build 0)  -->
<svg version="1.1" id="Слой_1" xmlns="http://www.w3.org/2000/svg" xmlns:xlink="http://www.w3.org/1999/xlink" x="0px" y="0px"
	 viewBox="0 0 147 48" style="enable-background:new 0 0 147 48;" xml:space="preserve">
<style type="text/css">
	.st0{fill:#FCEE50;}
	.st1{fill:#494949;}
</style>
<g>
	<path class="st0" d="M36.4,44.9c-0.4,0-0.8-0.1-1.1-0.3L26,39.8c-0.5-0.3-1.1-0.4-1.6-0.4c-0.6,0-1.1,0.1-1.6,0.4l-9.2,4.8
		c-0.4,0.2-0.7,0.3-1.1,0.3c-0.7,0-1.4-0.3-1.9-0.9c-0.5-0.6-0.7-1.3-0.5-2l1.8-10.3c0.2-1.1-0.2-2.3-1-3.1l-7.5-7.3
		c-0.7-0.7-0.9-1.6-0.6-2.5c0.3-0.9,1-1.5,2-1.7L15,15.7c1.1-0.2,2.1-0.9,2.6-1.9l4.6-9.4c0.4-0.9,1.2-1.4,2.2-1.4
		c1,0,1.8,0.5,2.2,1.4l4.6,9.4c0.5,1,1.5,1.7,2.6,1.9l10.3,1.5c0.9,0.1,1.7,0.8,2,1.7c0.3,0.9,0.1,1.9-0.6,2.5L38,28.7
		c-0.8,0.8-1.2,1.9-1,3.1l1.8,10.3c0.1,0.7-0.1,1.4-0.5,2C37.8,44.6,37.1,44.9,36.4,44.9z"/>
	<g>
		<path class="st1" d="M24.4,3.6L24.4,3.6c0.8,0,1.4,0.4,1.8,1.1l4.6,9.4c0.6,1.2,1.7,2,3,2.2l10.3,1.5c0.8,0.1,1.3,0.6,1.6,1.3
			c0.2,0.7,0,1.5-0.5,2l-7.5,7.3c-0.9,0.9-1.4,2.2-1.1,3.5l1.8,10.3c0.1,0.6-0.1,1.1-0.4,1.6c-0.4,0.4-0.9,0.7-1.5,0.7
			c-0.3,0-0.6-0.1-0.9-0.2l-9.2-4.9c-0.6-0.3-1.2-0.5-1.9-0.5c-0.6,0-1.3,0.2-1.8,0.5l-9.2,4.8c-0.3,0.2-0.6,0.2-0.9,0.2
			c-0.6,0-1.1-0.3-1.5-0.7c-0.4-0.4-0.5-1-0.4-1.6l1.8-10.3c0.2-1.3-0.2-2.6-1.1-3.5L3.6,21c-0.5-0.5-0.7-1.3-0.5-2
			c0.2-0.7,0.8-1.2,1.6-1.3L15,16.2c1.3-0.2,2.4-1,3-2.2l4.6-9.4C23,4,23.6,3.6,24.4,3.6 M24.4,2.6c-1.1,0-2.1,0.5-2.7,1.6l-4.6,9.4
			c-0.4,0.9-1.3,1.5-2.2,1.6L4.5,16.7C2.1,17,1.1,20,2.9,21.7l7.5,7.3c0.7,0.7,1,1.7,0.8,2.6L9.4,41.9c-0.3,1.9,1.2,3.5,2.9,3.5
			c0.5,0,0.9-0.1,1.4-0.3l9.2-4.8c0.4-0.2,0.9-0.3,1.4-0.3c0.5,0,0.9,0.1,1.4,0.3l9.2,4.9c0.5,0.2,0.9,0.3,1.4,0.3
			c1.7,0,3.2-1.6,2.9-3.5l-1.8-10.3c-0.2-1,0.2-1.9,0.9-2.6l7.5-7.3c1.8-1.7,0.8-4.7-1.6-5.1l-10.3-1.5c-1-0.1-1.8-0.7-2.2-1.6
			l-4.6-9.4C26.5,3.1,25.5,2.6,24.4,2.6L24.4,2.6z"/>
	</g>
</g>
<g>
	<path class="st0" d="M85.5,44.9c-0.4,0-0.8-0.1-1.1-0.3l-9.2-4.9c-0.5-0.3-1.1-0.4-1.6-0.4c-0.6,0-1.1,0.1-1.6,0.4l-9.2,4.8
		c-0.4,0.2-0.7,0.3-1.1,0.3c-0.7,0-1.4-0.3-1.9-0.9c-0.5-0.6-0.7-1.3-0.5-2l1.8-10.3c0.2-1.1-0.2-2.3-1-3.1l-7.5-7.3
		c-0.7-0.7-0.9-1.6-0.6-2.5c0.3-0.9,1-1.5,2-1.7l10.3-1.5c1.1-0.2,2.1-0.9,2.6-1.9l4.6-9.4c0.4-0.9,1.2-1.4,2.2-1.4
		c1,0,1.8,0.5,2.2,1.4l4.6,9.4c0.5,1,1.5,1.7,2.6,1.9l10.3,1.5c0.9,0.1,1.7,0.8,2,1.7c0.3,0.9,0.1,1.9-0.6,2.5l-7.5,7.3
		c-0.8,0.8-1.2,1.9-1,3.1l1.8,10.3c0.1,0.7-0.1,1.4-0.5,2C86.9,44.6,86.2,44.9,85.5,44.9z"/>
	<g>
		<path class="st1" d="M73.5,3.6L73.5,3.6c0.8,0,1.4,0.4,1.8,1.1l4.6,9.4c0.6,1.2,1.7,2,3,2.2l10.3,1.5c0.8,0.1,1.3,0.6,1.6,1.3
			c0.2,0.7,0,1.5-0.5,2l-7.5,7.3c-0.9,0.9-1.4,2.2-1.1,3.5l1.8,10.3c0.1,0.6-0.1,1.1-0.4,1.6c-0.4,0.4-0.9,0.7-1.5,0.7
			c-0.3,0-0.6-0.1-0.9-0.2l-9.2-4.9c-0.6-0.3-1.2-0.5-1.9-0.5c-0.6,0-1.3,0.2-1.8,0.5l-9.2,4.8c-0.3,0.2-0.6,0.2-0.9,0.2
			c-0.6,0-1.1-0.3-1.5-0.7c-0.4-0.4-0.5-1-0.4-1.6l1.8-10.3c0.2-1.3-0.2-2.6-1.1-3.5L52.7,21c-0.5-0.5-0.7-1.3-0.5-2
			c0.2-0.7,0.8-1.2,1.6-1.3l10.3-1.5c1.3-0.2,2.4-1,3-2.2l4.6-9.4C72.1,4,72.8,3.6,73.5,3.6 M73.5,2.6c-1.1,0-2.1,0.5-2.7,1.6
			l-4.6,9.4C65.8,14.4,65,15,64,15.2l-10.3,1.5C51.2,17,50.3,20,52,21.7l7.5,7.3c0.7,0.7,1,1.7,0.8,2.6l-1.8,10.3
			c-0.3,1.9,1.2,3.5,2.9,3.5c0.5,0,0.9-0.1,1.4-0.3l9.2-4.8c0.4-0.2,0.9-0.3,1.4-0.3c0.5,0,0.9,0.1,1.4,0.3l9.2,4.9
			c0.5,0.2,0.9,0.3,1.4,0.3c1.7,0,3.2-1.6,2.9-3.5l-1.8-10.3c-0.2-1,0.2-1.9,0.9-2.6l7.5-7.3c1.8-1.7,0.8-4.7-1.6-5.1L83,15.2
			c-1-0.1-1.8-0.7-2.2-1.6l-4.6-9.4C75.6,3.1,74.6,2.6,73.5,2.6L73.5,2.6z"/>
	</g>
</g>
<g>
	<path class="st1" d="M122.6,3.6L122.6,3.6c0.8,0,1.4,0.4,1.8,1.1L129,14c0.6,1.2,1.7,2,3,2.2l10.3,1.5c0.8,0.1,1.3,0.6,1.6,1.3
		s0,1.5-0.5,2l-7.5,7.3c-0.9,0.9-1.4,2.2-1.1,3.5l1.8,10.3c0.1,0.6-0.1,1.1-0.4,1.6c-0.4,0.4-0.9,0.7-1.5,0.7
		c-0.3,0-0.6-0.1-0.9-0.2l-9.2-4.9c-0.6-0.3-1.2-0.5-1.9-0.5c-0.6,0-1.3,0.2-1.8,0.5l-9.2,4.8c-0.3,0.2-0.6,0.2-0.9,0.2
		c-0.6,0-1.1-0.3-1.5-0.7c-0.4-0.4-0.5-1-0.4-1.6l1.8-10.3c0.2-1.3-0.2-2.6-1.1-3.5l-7.5-7.3c-0.5-0.5-0.7-1.3-0.5-2
		c0.2-0.7,0.8-1.2,1.6-1.3l10.3-1.5c1.3-0.2,2.4-1,3-2.2l4.6-9.4C121.2,4,121.9,3.6,122.6,3.6 M122.6,2.6c-1.1,0-2.1,0.5-2.7,1.6
		l-4.6,9.4c-0.4,0.9-1.3,1.5-2.2,1.6l-10.3,1.5c-2.4,0.4-3.4,3.3-1.6,5.1l7.5,7.3c0.7,0.7,1,1.7,0.8,2.6l-1.8,10.3
		c-0.3,1.9,1.2,3.5,2.9,3.5c0.5,0,0.9-0.1,1.4-0.3l9.2-4.8c0.4-0.2,0.9-0.3,1.4-0.3c0.5,0,0.9,0.1,1.4,0.3l9.2,4.9
		c0.5,0.2,0.9,0.3,1.4,0.3c1.7,0,3.2-1.6,2.9-3.5l-1.8-10.3c-0.2-1,0.2-1.9,0.9-2.6l7.5-7.3c1.8-1.7,0.8-4.7-1.6-5.1l-10.3-1.5
		c-1-0.1-1.8-0.7-2.2-1.6l-4.6-9.4C124.7,3.1,123.7,2.6,122.6,2.6L122.6,2.6z"/>
</g>
</svg>
